<?xml version="1.0" standalone="no"?>
<!DOCTYPE svg PUBLIC "-//W3C//DTD SVG 1.1//EN" "http://www.w3.org/Graphics/SVG/1.1/DTD/svg11.dtd" >
<svg>
<metadata>
Created by FontForge 20110222 at Mon Mar  7 13:19:12 2011
 By www-data
Generated by Fontographer 3.5
</metadata>
<defs>
<font id="HelveNueThin" horiz-adv-x="556" >
  <font-face 
    font-family="HelveNueThin"
    font-weight="400"
    font-stretch="normal"
    units-per-em="1000"
    panose-1="0 0 0 0 0 0 0 0 0 0"
    ascent="800"
    descent="-200"
    x-height="514"
    cap-height="714"
    bbox="-69 -198 1034 972"
    underline-thickness="30"
    underline-position="-118"
    unicode-range="U+0020-2122"
  />
    <missing-glyph />
    <glyph glyph-name="space" unicode=" " horiz-adv-x="278" 
 />
    <glyph glyph-name="exclam" unicode="!" horiz-adv-x="259" 
d="M104 103h51v-103h-51v103zM154 714v-246l-12 -285h-24l-12 285v246h48z" />
    <glyph glyph-name="quotedbl" unicode="&#x22;" horiz-adv-x="315" 
d="M235 714v-229h-38v229h38zM118 714v-229h-38v229h38z" />
    <glyph glyph-name="numbersign" unicode="#" 
d="M30 264h122l24 173h-118v33h123l31 220h33l-31 -220h169l31 220h33l-31 -220h110v-33h-115l-24 -173h111v-33h-116l-32 -231h-33l32 231h-169l-32 -231h-33l32 231h-117v33zM185 264h169l24 173h-169z" />
    <glyph glyph-name="dollar" unicode="$" 
d="M538 182q0 -91 -73 -145q-34 -25 -79 -39.5t-97 -14.5v-88h-31v89q-49 0 -90.5 14.5t-78.5 43.5q-77 59 -77 193h38q0 -103 61 -159t162 -56q103 0 165.5 44.5t62.5 120.5q0 63 -37 94q-53 45 -218 76q-113 21 -162.5 65t-49.5 118q0 91 65 142q31 24 70.5 37.5
t88.5 13.5v49h31v-48q59 0 101 -15.5t72 -46.5q60 -62 60 -159h-38q0 83 -48 130q-54 53 -164 53q-94 0 -147 -40.5t-53 -114.5q0 -65 47 -99.5t166 -55.5q132 -25 188 -65q65 -47 65 -137z" />
    <glyph glyph-name="percent" unicode="%" horiz-adv-x="778" 
d="M603 714h39l-464 -738h-40zM206 702q78 0 122 -48t44 -132q0 -74 -48 -124t-120 -50t-118 49t-46 128q0 77 47 127t119 50zM206 670q-57 0 -92 -41t-35 -107q0 -63 35 -102.5t91 -39.5q55 0 91.5 40.5t36.5 101.5q0 66 -35 107t-92 41zM573 342q78 0 122 -48t44 -132
q0 -75 -48.5 -124.5t-120.5 -49.5t-118 49t-46 128q0 77 47 127t120 50zM572 310q-57 0 -92 -41t-35 -107q0 -63 35 -102.5t92 -39.5q55 0 91.5 40.5t36.5 101.5q0 66 -35 107t-93 41z" />
    <glyph glyph-name="ampersand" unicode="&#x26;" horiz-adv-x="593" 
d="M516 294q0 -28 -12.5 -78t-23.5 -72l117 -144h-52l-86 107q-44 -65 -91 -90q-55 -29 -112 -29q-101 0 -160 53q-54 49 -54 125q0 74 50 127q45 46 137 100q-19 24 -37.5 48t-29.5 41q-30 47 -30 92q0 54 43 91t102 37q72 0 113.5 -34.5t41.5 -94.5q0 -56 -36 -97
t-113 -91l171 -209l13 40q11 41 11 78h38zM262 412q61 37 94 73q38 43 38 90q0 39 -32.5 66.5t-76.5 27.5q-49 0 -82 -25.5t-33 -69.5q0 -39 38 -92zM251 366q-79 -45 -123 -87q-47 -47 -47 -111q0 -63 49.5 -105t122.5 -42q58 0 108 32q42 27 74 84z" />
    <glyph glyph-name="quotesingle" unicode="'" horiz-adv-x="204" 
d="M121 714v-229h-38v229h38z" />
    <glyph glyph-name="parenleft" unicode="(" horiz-adv-x="241" 
d="M103 273q0 -131 34 -243q26 -87 93 -214h-34q-51 80 -87 191q-44 137 -44 266t44 266q36 113 87 192h34q-64 -122 -92 -214q-35 -115 -35 -244z" />
    <glyph glyph-name="parenright" unicode=")" horiz-adv-x="241" 
d="M138 273q0 132 -34 244q-26 87 -93 214h34q51 -80 87 -191q44 -137 44 -267q0 -129 -44 -266q-36 -111 -87 -191h-34q64 122 92 214q35 115 35 243z" />
    <glyph glyph-name="asterisk" unicode="*" horiz-adv-x="352" 
d="M176 539l-76 -105l-24 18l76 104l-123 40l9 28l123 -40v130h30v-130l123 40l9 -28l-123 -40l76 -104l-24 -18z" />
    <glyph glyph-name="plus" unicode="+" horiz-adv-x="600" 
d="M281 273v231h38v-231h233v-38h-233v-234h-38v234h-233v38h233z" />
    <glyph glyph-name="comma" unicode="," horiz-adv-x="278" 
d="M113 103h51v-103q0 -47 -15 -79.5t-49 -46.5v33q16 8 25 33t9 60h-21v103z" />
    <glyph glyph-name="hyphen" unicode="-" horiz-adv-x="352" 
d="M69 291h213v-38h-213v38z" />
    <glyph glyph-name="period" unicode="." horiz-adv-x="278" 
d="M113 102h52v-102h-52v102z" />
    <glyph glyph-name="slash" unicode="/" horiz-adv-x="333" 
d="M-13 -17l318 748h41l-318 -748h-41z" />
    <glyph glyph-name="zero" unicode="0" 
d="M528 345q0 -170 -64 -263.5t-186 -93.5t-186 93.5t-64 263.5t64 263.5t186 93.5t186 -93.5t64 -263.5zM490 345q0 152 -54.5 238t-157.5 86t-157.5 -85.5t-54.5 -238.5q0 -152 54.5 -238t157.5 -86t157.5 85.5t54.5 238.5z" />
    <glyph glyph-name="one" unicode="1" 
d="M331 0h-38v616q-33 -35 -80 -58.5t-105 -29.5v33q60 9 107.5 41t81.5 88h34v-690z" />
    <glyph glyph-name="two" unicode="2" 
d="M46 0q0 87 73 163q53 55 182 134q62 38 102 86q54 64 54 134q0 63 -49.5 107.5t-118.5 44.5q-91 0 -139.5 -58t-48.5 -154h-38v10q0 95 52 161q59 74 160 74q102 0 161 -50t59 -138q0 -78 -61 -153q-46 -57 -110.5 -96.5t-101.5 -65.5q-61 -44 -90 -77q-38 -44 -38 -84
h412v-38h-460z" />
    <glyph glyph-name="three" unicode="3" 
d="M91 472h-38q0 105 61.5 167.5t163.5 62.5q99 0 158 -48t59 -128q0 -58 -35 -100q-38 -47 -108 -58q72 -6 115 -52t43 -124q0 -96 -62.5 -150t-171.5 -54q-110 0 -172 54q-68 60 -68 177v9h38v-15q0 -87 54.5 -139.5t145.5 -52.5q87 0 143 47t56 121q0 81 -54 121.5
t-141 40.5h-37v32h29q82 0 132 35q55 39 55 110q0 60 -49.5 100.5t-127.5 40.5q-90 0 -139.5 -54.5t-49.5 -142.5z" />
    <glyph glyph-name="four" unicode="4" 
d="M365 690h38v-481h116v-33h-116v-176h-38v176h-336v39zM365 641l-298 -432h298v432z" />
    <glyph glyph-name="five" unicode="5" 
d="M479 690v-33h-319l-60 -281q31 43 76.5 65t96.5 22q105 0 170 -66t65 -173q0 -101 -65.5 -168.5t-165.5 -67.5q-108 0 -173 57q-68 60 -68 166h39q0 -84 57 -137t142 -53q82 0 139 59t57 143q0 91 -56 149t-146 58q-102 0 -172 -97h-38l72 357h349z" />
    <glyph glyph-name="six" unicode="6" 
d="M520 220q0 -98 -67 -165t-166 -67q-119 0 -180 78q-65 83 -65 253q0 185 64.5 284t190.5 99q83 0 136 -41q60 -46 74 -141h-38q-14 70 -60.5 109.5t-109.5 39.5q-107 0 -163 -89q-25 -40 -39.5 -103.5t-14.5 -153.5q28 55 64 83q65 50 138 50q103 0 169.5 -66.5
t66.5 -169.5zM83 228q12 -93 56 -143q58 -64 149 -64q82 0 137.5 58.5t55.5 143.5q0 82 -57 141t-138 59q-95 0 -148 -71q-48 -65 -55 -124z" />
    <glyph glyph-name="seven" unicode="7" 
d="M501 690v-38q-154 -165 -223 -310q-74 -157 -74 -342h-44q0 138 37 252q34 104 105 209q58 85 161 196h-407v33h445z" />
    <glyph glyph-name="eight" unicode="8" 
d="M278 359q-95 0 -148 -42.5t-53 -121.5q0 -80 55 -127t146 -47t146 47t55 127q0 78 -53 121t-148 43zM278 669q-82 0 -128.5 -36.5t-46.5 -103.5q0 -63 48 -100t127 -37q80 0 127.5 36.5t47.5 100.5q0 68 -46 104t-129 36zM200 377q-62 9 -98.5 48.5t-36.5 101.5
q0 83 56.5 129t156.5 46t156.5 -45.5t56.5 -128.5q0 -59 -33 -99t-100 -52q76 -10 117 -57t41 -118q0 -102 -63 -158t-175 -56q-110 0 -174.5 55.5t-64.5 152.5q0 75 41.5 123.5t119.5 57.5z" />
    <glyph glyph-name="nine" unicode="9" 
d="M46 470q0 102 66 167t170 65q116 0 176.5 -80t60.5 -251q0 -181 -64.5 -282t-186.5 -101q-83 0 -137 41q-62 47 -75 141h37q12 -70 60 -109.5t112 -39.5q99 0 158 84q28 40 43.5 107t15.5 160q-27 -61 -65 -90q-65 -48 -136 -48q-104 0 -169.5 65.5t-65.5 170.5zM478 461
q-13 92 -52 140q-56 68 -147 68q-83 0 -139 -58t-56 -144q0 -82 57 -141t138 -59q92 0 145 63q25 29 39.5 62.5t14.5 68.5z" />
    <glyph glyph-name="colon" unicode=":" horiz-adv-x="278" 
d="M113 513h52v-102h-52v102zM113 102h52v-102h-52v102z" />
    <glyph glyph-name="semicolon" unicode=";" horiz-adv-x="278" 
d="M113 513h52v-102h-52v102zM113 103h51v-103q0 -47 -15 -79.5t-49 -46.5v33q16 8 25 33t9 60h-21v103z" />
    <glyph glyph-name="less" unicode="&#x3c;" horiz-adv-x="600" 
d="M78 252l477 -220v-41l-509 235v52l509 235v-41z" />
    <glyph glyph-name="equal" unicode="=" horiz-adv-x="600" 
d="M48 331v38h504v-38h-504zM48 135v38h504v-38h-504z" />
    <glyph glyph-name="greater" unicode="&#x3e;" horiz-adv-x="600" 
d="M46 32l477 220l-477 220v41l509 -235v-52l-509 -235v41z" />
    <glyph glyph-name="question" unicode="?" horiz-adv-x="519" 
d="M265 731q96 0 147 -52q48 -48 48 -129q0 -49 -19 -86.5t-68 -80.5q-99 -80 -99 -187v-15h-38v17q0 58 21.5 102.5t72.5 91.5q45 39 67 75q26 42 26 87q0 63 -43 101t-119 38q-84 0 -132 -54t-48 -146h-38q0 114 60 176t162 62zM231 103h51v-103h-51v103z" />
    <glyph glyph-name="at" unicode="@" horiz-adv-x="800" 
d="M417 732q145 0 241 -92t96 -219q0 -114 -74 -202.5t-159 -88.5q-22 0 -37 15q-19 19 -27 58q-20 -28 -51 -47q-38 -24 -78 -24q-59 0 -94 37q-39 41 -39 116q0 106 67 197q72 98 168 98q40 0 68 -20q34 -24 46 -72l24 72h42l-107 -324q-6 -21 -6 -35q0 -11 4 -18
q9 -14 30 -14q63 0 123 75q64 80 64 179q0 113 -86 195t-212 82q-139 0 -237.5 -99.5t-98.5 -243.5q0 -143 103 -242q99 -96 231 -96q89 0 166 44.5t110 104.5h42q-32 -67 -117 -121q-94 -60 -195 -60q-164 0 -273 112q-105 108 -105 263q0 148 109 259t262 111zM425 548
q-73 0 -132.5 -85t-59.5 -177q0 -56 32 -89q29 -30 70 -30q72 0 132 103q52 89 52 156q0 59 -23.5 90.5t-70.5 31.5z" />
    <glyph glyph-name="A" unicode="A" horiz-adv-x="593" 
d="M454 267l-154 407l-160 -407h314zM604 0h-46l-90 229h-342l-91 -229h-47l287 714h48z" />
    <glyph glyph-name="B" unicode="B" horiz-adv-x="630" 
d="M107 352v-314h244q94 0 148.5 41.5t54.5 116.5q0 77 -52 116.5t-150 39.5h-245zM348 0h-285v714h286q106 0 165.5 -48.5t59.5 -137.5q0 -58 -38.5 -100t-103.5 -52q76 -9 121.5 -58.5t45.5 -117.5q0 -95 -66.5 -147.5t-184.5 -52.5zM107 390h249q78 0 126 39t48 104
q0 70 -47.5 106.5t-135.5 36.5h-240v-286z" />
    <glyph glyph-name="C" unicode="C" horiz-adv-x="704" 
d="M80 357q0 -147 82.5 -240.5t211.5 -93.5q101 0 174.5 73.5t82.5 181.5h44q-14 -128 -97.5 -210.5t-203.5 -82.5q-150 0 -244 103t-94 265q0 167 93.5 272.5t242.5 105.5q117 0 192 -57t99 -173h-44q-17 90 -85 141t-161 51q-129 0 -211 -94t-82 -242z" />
    <glyph glyph-name="D" unicode="D" horiz-adv-x="667" 
d="M583 358q0 318 -286 318h-190v-638h192q134 0 209 85t75 235zM63 714h240q156 0 240 -92t84 -266q0 -166 -88 -261t-249 -95h-227v714z" />
    <glyph glyph-name="E" unicode="E" horiz-adv-x="560" 
d="M548 0h-485v714h480v-38h-436v-287h410v-37h-410v-314h441v-38z" />
    <glyph glyph-name="F" unicode="F" horiz-adv-x="514" 
d="M106 0h-43v714h447v-38h-404v-287h366l-1 -37h-365v-352z" />
    <glyph glyph-name="G" unicode="G" horiz-adv-x="741" 
d="M81 358q0 -154 79.5 -244.5t216.5 -90.5q120 0 194 74t74 191v24h-263v38h300v-350h-37v155q-32 -84 -110 -129q-70 -41 -158 -41q-155 0 -247.5 101.5t-92.5 269.5q0 165 94 270t242 105q120 0 203 -69q79 -66 95 -169h-42q-27 97 -93.5 148.5t-161.5 51.5
q-129 0 -211 -94t-82 -241z" />
    <glyph glyph-name="H" unicode="H" horiz-adv-x="670" 
d="M63 714h44v-324h456v324h44v-714h-44v353h-456v-353h-44v714z" />
    <glyph glyph-name="I" unicode="I" horiz-adv-x="170" 
d="M107 0h-44v714h44v-714z" />
    <glyph glyph-name="J" unicode="J" horiz-adv-x="481" 
d="M374 714h44v-513q0 -120 -52 -171q-48 -47 -147 -47q-199 0 -199 218v26h43v-24q0 -102 37 -142t118 -40q83 0 119.5 39.5t36.5 137.5v516z" />
    <glyph glyph-name="K" unicode="K" horiz-adv-x="613" 
d="M107 0h-44v714h44v-411l449 411h57l-326 -297l346 -417h-54l-324 387l-148 -135v-252z" />
    <glyph glyph-name="L" unicode="L" horiz-adv-x="500" 
d="M107 714v-676h406v-38h-450v714h44z" />
    <glyph glyph-name="M" unicode="M" horiz-adv-x="809" 
d="M683 714h62v-714h-44v662l-273 -662h-44l-277 665v-665h-44v714h63l280 -667z" />
    <glyph glyph-name="N" unicode="N" horiz-adv-x="678" 
d="M570 57v657h44v-714h-51l-456 663v-663h-44v714h55q22 -33 75 -111q68 -100 75 -110l76 -108q26 -36 75 -107q27 -39 75 -109q60 -87 76 -112z" />
    <glyph glyph-name="O" unicode="O" horiz-adv-x="741" 
d="M667 358q0 148 -82.5 241.5t-213.5 93.5q-130 0 -213 -94t-83 -241t83 -241t213 -94q131 0 213.5 93.5t82.5 241.5zM711 358q0 -165 -94 -269t-246 -104t-246 103.5t-94 269.5q0 165 94 269t246 104t246 -103.5t94 -269.5z" />
    <glyph glyph-name="P" unicode="P" horiz-adv-x="591" 
d="M107 356h249q81 0 128 42t47 116q0 78 -45 120t-127 42h-252v-320zM107 318v-318h-44v714h299q212 0 212 -200q0 -94 -57 -145t-160 -51h-250z" />
    <glyph glyph-name="Q" unicode="Q" horiz-adv-x="741" 
d="M537 74l-107 77l23 31l114 -82l17 17q83 95 83 241q0 148 -82.5 241.5t-213.5 93.5q-130 0 -213 -94t-83 -241t83 -241t213 -94q101 0 166 51zM714 -6l-23 -31l-118 85q-78 -63 -202 -63q-152 0 -246 103.5t-94 269.5q0 165 94 269t246 104t246 -103.5t94 -269.5
t-94 -269l-14 -15z" />
    <glyph glyph-name="R" unicode="R" horiz-adv-x="630" 
d="M107 325v-325h-44v714h296q111 0 169.5 -46.5t58.5 -136.5q0 -71 -37 -118q-41 -52 -119 -67q83 -11 116 -64q28 -45 28 -139q0 -78 4.5 -100.5t17.5 -42.5h-49q-10 17 -13.5 47.5t-3.5 113.5q0 84 -37 122q-41 42 -136 42h-251zM107 363h254q86 0 134 42t48 119
q0 72 -48 112t-135 40h-253v-313z" />
    <glyph glyph-name="S" unicode="S" horiz-adv-x="630" 
d="M592 184q0 -89 -72 -144t-187 -55q-142 0 -218 67t-76 186h43v-10q0 -96 65.5 -150.5t184.5 -54.5q100 0 157.5 43.5t57.5 119.5q0 63 -39 94q-56 45 -226 76q-118 21 -170 64.5t-52 118.5q0 89 65.5 140.5t176.5 51.5q129 0 202 -63q69 -60 69 -158h-44q0 85 -60 134
t-165 49q-93 0 -146.5 -40.5t-53.5 -112.5q0 -62 56 -99q52 -34 166 -54q140 -25 198 -65q68 -47 68 -138z" />
    <glyph glyph-name="T" unicode="T" horiz-adv-x="519" 
d="M281 0h-44v676h-251v38h547v-38h-252v-676z" />
    <glyph glyph-name="U" unicode="U" horiz-adv-x="672" 
d="M565 280v434h44v-434q0 -144 -69.5 -219.5t-203.5 -75.5q-273 0 -273 290v439h44v-434q0 -126 58.5 -191.5t170.5 -65.5q229 0 229 257z" />
    <glyph glyph-name="V" unicode="V" 
d="M526 714h44l-267 -714h-51l-266 714h46l246 -679z" />
    <glyph glyph-name="W" unicode="W" horiz-adv-x="889" 
d="M848 714h48l-206 -714h-50l-197 680l-194 -680h-49l-206 714h45l187 -671l190 671h55l193 -671z" />
    <glyph glyph-name="X" unicode="X" 
d="M509 714h50l-252 -347l267 -367h-54l-242 334l-243 -334h-52l268 367l-250 347h51l226 -314z" />
    <glyph glyph-name="Y" unicode="Y" horiz-adv-x="574" 
d="M546 714h50l-288 -415v-299h-44v299l-285 415h50l258 -378z" />
    <glyph glyph-name="Z" unicode="Z" horiz-adv-x="537" 
d="M538 38v-38h-539v38l482 638h-453v38h500v-39l-483 -637h493z" />
    <glyph glyph-name="bracketleft" unicode="[" horiz-adv-x="241" 
d="M132 698v-849h99v-33h-137v915h137v-33h-99z" />
    <glyph glyph-name="backslash" unicode="\" horiz-adv-x="333" 
d="M305 -17l-318 748h41l318 -748h-41z" />
    <glyph glyph-name="bracketright" unicode="]" horiz-adv-x="241" 
d="M109 698h-99v33h137v-915h-137v33h99v849z" />
    <glyph glyph-name="asciicircum" unicode="^" horiz-adv-x="600" 
d="M81 237h-42l236 453h50l237 -453h-42l-220 418z" />
    <glyph glyph-name="underscore" unicode="_" horiz-adv-x="500" 
d="M500 -125h-500v50h500v-50z" />
    <glyph glyph-name="grave" unicode="`" horiz-adv-x="167" 
d="M141 591h-37l-134 140h51z" />
    <glyph glyph-name="a" unicode="a" horiz-adv-x="500" 
d="M397 202v93q-23 -38 -142 -38q-97 0 -141 -31t-44 -95q0 -49 35 -81t97 -32q93 0 146 55q49 51 49 129zM397 105q-27 -60 -77 -90t-120 -30q-83 0 -125.5 37.5t-42.5 106.5q0 159 223 159q58 0 85 9q59 19 59 78q0 56 -40.5 87t-103.5 31q-75 0 -116.5 -39.5t-41.5 -97.5
h-38q0 76 47 121q52 49 151 49q179 0 179 -149v-304q0 -40 34 -40l27 3v-32l-29 -4q-71 0 -71 63v42z" />
    <glyph glyph-name="b" unicode="b" 
d="M103 399q21 61 74.5 94t119.5 33q106 0 166 -68t60 -187q0 -135 -60 -209t-167 -74q-65 0 -118.5 35t-74.5 97v-120h-38v714h38v-315zM104 255q0 -98 50 -163q55 -71 147 -71q84 0 134 68t50 180q0 99 -51.5 161.5t-133.5 62.5q-196 0 -196 -238z" />
    <glyph glyph-name="c" unicode="c" horiz-adv-x="519" 
d="M447 181h39q-12 -87 -70 -140t-143 -53q-110 0 -175 71.5t-65 191.5q0 124 63.5 199.5t173.5 75.5q87 0 141 -40q60 -45 69 -131h-38q0 60 -48 99t-124 39q-87 0 -143 -65.5t-56 -167.5q0 -112 52.5 -175.5t148.5 -63.5q67 0 116.5 43.5t58.5 116.5z" />
    <glyph glyph-name="d" unicode="d" 
d="M453 114q-32 -65 -82 -95.5t-113 -30.5q-108 0 -167 70.5t-59 197.5q0 124 61 197t166 73q66 0 119.5 -34t74.5 -99v321h37v-714h-37v114zM452 254q0 107 -51.5 173t-139.5 66q-89 0 -140 -64t-51 -173q0 -106 52.5 -170.5t139.5 -64.5q86 0 138 65t52 168z" />
    <glyph glyph-name="e" unicode="e" horiz-adv-x="519" 
d="M484 175q-16 -90 -73.5 -138.5t-148.5 -48.5q-109 0 -169 71.5t-60 198.5q0 119 63.5 193.5t166.5 74.5q102 0 165 -74q60 -71 60 -178v-22h-418q0 -103 51 -167t141 -64q74 0 121 42.5t60 111.5h41zM71 285h377q0 89 -54.5 148.5t-132.5 59.5q-82 0 -137 -67
q-45 -56 -53 -141z" />
    <glyph glyph-name="f" unicode="f" horiz-adv-x="241" 
d="M130 0h-38v481h-89v33h89v110q0 44 30 71t83 27l45 -5v-33l-46 5q-40 0 -57 -18t-17 -58v-99h107v-33h-107v-481z" />
    <glyph glyph-name="g" unicode="g" horiz-adv-x="537" 
d="M443 140q-26 -59 -74.5 -90t-108.5 -31q-108 0 -167.5 66.5t-59.5 186.5q0 115 61 186t162 71q63 0 114 -37.5t69 -101.5v125h43v-491q0 -220 -221 -220q-92 0 -139 33q-55 39 -64 127h38q6 -64 49 -95.5t115 -31.5q90 0 136.5 47.5t46.5 144.5v111zM442 269
q0 102 -50.5 164.5t-135.5 62.5q-83 0 -134 -62t-51 -163q0 -99 50 -159t136 -60q82 0 133.5 60.5t51.5 156.5z" />
    <glyph glyph-name="h" unicode="h" horiz-adv-x="519" 
d="M463 0h-38v330q0 163 -145 163q-84 0 -135 -60t-51 -150v-283h-38v714h38v-317q16 57 68.5 93t118.5 36q182 0 182 -189v-337z" />
    <glyph glyph-name="i" unicode="i" horiz-adv-x="168" 
d="M65 611v103h38v-103h-38zM103 0h-38v514h38v-514z" />
    <glyph glyph-name="j" unicode="j" horiz-adv-x="168" 
d="M65 611v103h38v-103h-38zM65 514h38v-577q0 -60 -25 -90.5t-86 -30.5l-26 1v33l26 -2q37 0 55 18t18 64v584z" />
    <glyph glyph-name="k" unicode="k" horiz-adv-x="463" 
d="M58 714h38v-473l317 273h55l-225 -192l241 -322h-52l-219 293l-117 -99v-194h-38v714z" />
    <glyph glyph-name="l" unicode="l" horiz-adv-x="168" 
d="M65 714h38v-714h-38v714z" />
    <glyph glyph-name="m" unicode="m" horiz-adv-x="796" 
d="M738 0h-38v356q0 64 -32.5 100.5t-88.5 36.5q-77 0 -120 -53t-43 -140v-300h-37v356q0 63 -32 100t-89 37q-69 0 -116 -53t-47 -131v-309h-38v514h39v-114q11 54 57 90t106 36t101 -28t54 -85q21 57 63.5 85t99.5 28q78 0 119.5 -45.5t41.5 -128.5v-352z" />
    <glyph glyph-name="n" unicode="n" horiz-adv-x="519" 
d="M463 0h-38v330q0 163 -145 163q-84 0 -135 -60t-51 -150v-283h-38v514h39v-116q17 56 68 92t115 36q91 0 138 -48t47 -141v-337z" />
    <glyph glyph-name="o" unicode="o" horiz-adv-x="537" 
d="M504 257q0 -122 -64.5 -195.5t-172.5 -73.5q-107 0 -171 74t-64 195q0 122 64.5 195.5t172.5 73.5q107 0 171 -74t64 -195zM466 257q0 105 -54.5 170.5t-143.5 65.5t-143.5 -65.5t-54.5 -170.5t54.5 -170.5t143.5 -65.5t143.5 65.5t54.5 170.5z" />
    <glyph glyph-name="p" unicode="p" 
d="M103 113v-297h-38v698h37v-124q19 62 71 99t119 37q105 0 168 -73t63 -195q0 -127 -59.5 -198.5t-167.5 -71.5q-72 0 -122 30t-71 95zM104 259q0 -238 192 -238q87 0 138 63.5t51 171.5q0 107 -52 172t-140 65q-89 0 -139 -63t-50 -171z" />
    <glyph glyph-name="q" unicode="q" 
d="M453 121q-21 -64 -72.5 -98.5t-122.5 -34.5q-105 0 -165.5 73.5t-60.5 197.5q0 123 59 195t162 72q70 0 117.5 -28.5t82.5 -97.5v114h37v-698h-37v305zM452 258q0 105 -52 170t-139 65t-139 -64t-52 -171q0 -108 50.5 -172.5t135.5 -64.5q92 0 144 65.5t52 171.5z" />
    <glyph glyph-name="r" unicode="r" horiz-adv-x="278" 
d="M94 0h-38v514h38v-121q20 59 73.5 91.5t110.5 32.5h17v-36h-13q-82 0 -135 -56t-53 -144v-281z" />
    <glyph glyph-name="s" unicode="s" horiz-adv-x="481" 
d="M445 134q0 -71 -51.5 -108.5t-147.5 -37.5q-95 0 -152.5 48t-57.5 136h38q0 -68 48.5 -109.5t125.5 -41.5q73 0 116 28.5t43 82.5q0 47 -35 71q-40 28 -138.5 45t-139 50.5t-40.5 96.5q0 64 50 97.5t135 33.5q93 0 142 -42t49 -122h-38q0 62 -39.5 96.5t-109.5 34.5
q-74 0 -112.5 -27t-38.5 -74q0 -43 32 -66q38 -27 149 -47q92 -16 132 -49t40 -96z" />
    <glyph glyph-name="t" unicode="t" horiz-adv-x="259" 
d="M133 122q0 -50 19.5 -69.5t66.5 -19.5h25v-33l-25 -1q-65 0 -94.5 27.5t-29.5 86.5v368h-95v33h95v160h38v-160h112v-33h-112v-359z" />
    <glyph glyph-name="u" unicode="u" horiz-adv-x="519" 
d="M463 514v-514h-38v115q-16 -54 -67 -90.5t-116 -36.5q-186 0 -186 191v335h38v-331q0 -162 150 -162q81 0 131 60t50 161v272h38z" />
    <glyph glyph-name="v" unicode="v" horiz-adv-x="444" 
d="M445 514l-193 -514h-47l-207 514h44l187 -473l175 473h41z" />
    <glyph glyph-name="w" unicode="w" horiz-adv-x="704" 
d="M377 514l142 -473l145 473h41l-164 -514h-47l-142 469l-143 -469h-48l-163 514h41l146 -473l141 473h51z" />
    <glyph glyph-name="x" unicode="x" horiz-adv-x="444" 
d="M433 514l-186 -244l203 -270h-52l-176 241l-180 -241h-48l202 270l-188 244h53l161 -215l162 215h49z" />
    <glyph glyph-name="y" unicode="y" horiz-adv-x="444" 
d="M406 514h42l-239 -614q-20 -49 -46.5 -66.5t-90.5 -17.5h-23v33h18q39 0 66.5 14.5t42.5 50.5l33 89l-215 511h45l191 -469z" />
    <glyph glyph-name="z" unicode="z" horiz-adv-x="426" 
d="M36 514h364v-37l-345 -444h362v-33h-408v36l345 445h-318v33z" />
    <glyph glyph-name="braceleft" unicode="{" horiz-adv-x="333" 
d="M83 256v35q72 13 72 159v170q0 52 19.5 81.5t67.5 29.5h51v-33h-51q-27 0 -38.5 -25t-11.5 -89v-138q0 -75 -18 -116t-53 -57q34 -15 52.5 -55.5t18.5 -116.5v-138q0 -66 11 -90t39 -24h51v-33h-51q-46 0 -66.5 30t-20.5 81v170q0 75 -16.5 113.5t-55.5 45.5z" />
    <glyph glyph-name="bar" unicode="|" horiz-adv-x="222" 
d="M92 -17v748h38v-748h-38z" />
    <glyph glyph-name="braceright" unicode="}" horiz-adv-x="333" 
d="M251 291v-35q-73 -13 -73 -159v-170q0 -52 -18 -79q-21 -32 -69 -32h-51v33h51q27 0 38.5 25t11.5 89v138q0 74 19 115.5t53 56.5q-34 16 -53 57.5t-19 115.5v138q0 66 -11 90t-39 24h-51v33h51q46 0 68 -32q19 -28 19 -79v-170q0 -146 73 -159z" />
    <glyph glyph-name="asciitilde" unicode="~" horiz-adv-x="600" 
d="M199 267q-63 0 -97 -75l-29 30q23 42 50 61q31 22 74 22q47 0 111 -34t94 -34q60 0 97 75l29 -30q-23 -42 -52 -62.5t-72 -20.5q-47 0 -111 34t-94 34z" />
    <glyph glyph-name="quotesinglbase" unicode="&#x201a;" horiz-adv-x="204" 
 />
    <glyph glyph-name="florin" unicode="&#x192;" 
d="M434 731l59 -6l-8 -38l-52 6q-43 0 -69.5 -23.5t-38.5 -79.5l-31 -161h120l-5 -33h-121l-86 -439q-17 -67 -50 -102q-37 -39 -94 -39l-53 6l7 37l51 -5q69 0 99 112l84 430h-111l7 33h110l33 169q31 133 149 133z" />
    <glyph glyph-name="quotedblbase" unicode="&#x201e;" horiz-adv-x="315" 
 />
    <glyph glyph-name="ellipsis" unicode="&#x2026;" horiz-adv-x="1000" 
 />
    <glyph glyph-name="dagger" unicode="&#x2020;" 
 />
    <glyph glyph-name="daggerdbl" unicode="&#x2021;" 
 />
    <glyph glyph-name="circumflex" unicode="&#x2c6;" horiz-adv-x="167" 
d="M-52 591l115 140h40l115 -140h-38l-97 115l-97 -115h-38z" />
    <glyph glyph-name="perthousand" unicode="&#x2030;" horiz-adv-x="1074" 
d="M570 714h39l-464 -738h-40zM192 702q71 0 111.5 -45.5t40.5 -126.5q0 -72 -44 -119t-110 -47t-108 47t-42 122q0 74 42.5 121.5t109.5 47.5zM192 670q-51 0 -82 -38t-31 -102q0 -58 31 -96t81 -38q49 0 81.5 38.5t32.5 95.5q0 62 -31 101t-82 39zM527 326q72 0 112 -46
t40 -126q0 -72 -44 -119t-110 -47q-67 0 -108 46.5t-41 122.5q0 75 42 122t109 47zM527 294q-51 0 -81.5 -38.5t-30.5 -101.5q0 -58 31 -96t80 -38t81.5 38.5t32.5 95.5q0 62 -31 101t-82 39zM882 326q72 0 112 -46t40 -126q0 -72 -44 -119t-110 -47q-67 0 -108 46.5
t-41 122.5q0 75 42 122t109 47zM882 294q-51 0 -81.5 -38.5t-30.5 -101.5q0 -58 31 -96t80 -38t81.5 38.5t32.5 95.5q0 62 -31 101t-82 39z" />
    <glyph glyph-name="Scaron" unicode="&#x160;" horiz-adv-x="630" 
d="M175 923h38l97 -115l97 115h38l-115 -140h-40zM592 184q0 -89 -72 -144t-187 -55q-142 0 -218 67t-76 186h43v-10q0 -96 65.5 -150.5t184.5 -54.5q100 0 157.5 43.5t57.5 119.5q0 63 -39 94q-56 45 -226 76q-118 21 -170 64.5t-52 118.5q0 89 65.5 140.5t176.5 51.5
q129 0 202 -63q69 -60 69 -158h-44q0 85 -60 134t-165 49q-93 0 -146.5 -40.5t-53.5 -112.5q0 -62 56 -99q52 -34 166 -54q140 -25 198 -65q68 -47 68 -138z" />
    <glyph glyph-name="guilsinglleft" unicode="&#x2039;" horiz-adv-x="259" 
 />
    <glyph glyph-name="quoteleft" unicode="&#x2018;" horiz-adv-x="204" 
d="M79 485v107q0 45 16 77.5t48 44.5v-33q-17 -9 -25.5 -35t-8.5 -58h21v-103h-51z" />
    <glyph glyph-name="quoteright" unicode="&#x2019;" horiz-adv-x="204" 
d="M125 714v-102q0 -103 -64 -127v33q17 9 25.5 35t8.5 58h-21v103h51z" />
    <glyph glyph-name="quotedblleft" unicode="&#x201c;" horiz-adv-x="315" 
d="M190 485v107q0 45 16 77.5t48 44.5v-33q-17 -9 -25.5 -35t-8.5 -58h21v-103h-51zM64 485v107q0 45 16 77.5t48 44.5v-33q-17 -9 -25.5 -35t-8.5 -58h21v-103h-51z" />
    <glyph glyph-name="quotedblright" unicode="&#x201d;" horiz-adv-x="315" 
d="M251 714v-102q0 -103 -64 -127v33q17 9 25.5 35t8.5 58h-21v103h51zM125 714v-102q0 -103 -64 -127v33q17 9 25.5 35t8.5 58h-21v103h51z" />
    <glyph glyph-name="bullet" unicode="&#x2022;" horiz-adv-x="500" 
d="M250 536q75 0 127 -52t52 -127t-52 -127t-126 -52q-75 0 -127 52t-52 127t52 127t126 52z" />
    <glyph glyph-name="endash" unicode="&#x2013;" horiz-adv-x="500" 
d="M0 293h501v-40h-501v40z" />
    <glyph glyph-name="emdash" unicode="&#x2014;" horiz-adv-x="1000" 
d="M0 293h1000v-40h-1000v40z" />
    <glyph glyph-name="tilde" unicode="&#x2dc;" horiz-adv-x="167" 
d="M228 692q0 -38 -23 -64t-54 -26q-26 0 -72.5 28.5t-65.5 28.5t-30.5 -16.5t-14.5 -40.5h-29q0 38 23 64t54 26q25 0 71.5 -28.5t66.5 -28.5q19 0 30.5 16.5t14.5 40.5h29z" />
    <glyph glyph-name="trademark" unicode="&#x2122;" horiz-adv-x="990" 
d="M404 680l-144 1v-379h-31v379h-144v33h319v-34zM906 714v-412h-31v383l-172 -383h-18l-170 383v-383h-32v412h59l152 -346l152 346h60z" />
    <glyph glyph-name="scaron" unicode="&#x161;" horiz-adv-x="481" 
d="M100 731h38l97 -115l97 115h38l-115 -140h-40zM445 134q0 -71 -51.5 -108.5t-147.5 -37.5q-95 0 -152.5 48t-57.5 136h38q0 -68 48.5 -109.5t125.5 -41.5q73 0 116 28.5t43 82.5q0 47 -35 71q-40 28 -138.5 45t-139 50.5t-40.5 96.5q0 64 50 97.5t135 33.5q93 0 142 -42
t49 -122h-38q0 62 -39.5 96.5t-109.5 34.5q-74 0 -112.5 -27t-38.5 -74q0 -43 32 -66q38 -27 149 -47q92 -16 132 -49t40 -96z" />
    <glyph glyph-name="guilsinglright" unicode="&#x203a;" horiz-adv-x="259" 
 />
    <glyph glyph-name="Ydieresis" unicode="&#x178;" horiz-adv-x="574" 
d="M546 714h50l-288 -415v-299h-44v299l-285 415h50l258 -378zM187 888h44v-102h-44v102zM345 888h44v-102h-44v102z" />
    <glyph glyph-name="nonbreakingspace" unicode="&#xa0;" horiz-adv-x="500" 
 />
    <glyph glyph-name="exclamdown" unicode="&#xa1;" horiz-adv-x="259" 
d="M155 429h-51v103h51v-103zM105 -182v246l12 285h24l12 -285v-246h-48z" />
    <glyph glyph-name="cent" unicode="&#xa2;" 
d="M305 -121h-32v109q-48 0 -88 18.5t-70 51.5q-64 71 -64 192t63 198q30 36 70 56.5t90 20.5v88h32v-89q34 0 64.5 -10.5t58.5 -29.5q60 -40 69 -130h-38q0 59 -49 98q-21 18 -47.5 28.5t-57.5 10.5l-1 -470q28 0 52 10.5t48 31.5q51 44 60 117h39q-12 -87 -70 -140
q-28 -25 -59.5 -38.5t-69.5 -13.5v-109zM273 21l1 471q-38 0 -71.5 -17.5t-58.5 -48.5q-55 -64 -55 -167q0 -112 52 -176q25 -29 57.5 -45.5t74.5 -16.5z" />
    <glyph glyph-name="sterling" unicode="&#xa3;" 
d="M68 -17l-25 34q54 49 83.5 100.5t29.5 102.5q0 31 -6 56t-22 54h-79v33h60q-60 107 -60 170q0 86 61 142t166 56q113 0 171 -55q64 -61 64 -192h-38q0 106 -49.5 157.5t-147.5 51.5q-82 0 -133 -38q-56 -42 -56 -114q0 -40 22 -93q12 -28 43 -85h160v-33h-141
q12 -21 17.5 -48t5.5 -61q0 -103 -106 -197q39 26 60 33.5t44 7.5q43 0 100 -22t94 -22t69.5 17.5t64.5 49.5l22 -32q-30 -34 -69.5 -53.5t-79.5 -19.5q-51 0 -108 22t-99 22q-30 0 -55.5 -10t-62.5 -34z" />
    <glyph glyph-name="currency" unicode="&#xa4;" 
d="M279 553q-86 0 -147 -60t-61 -147q0 -86 60.5 -146.5t146.5 -60.5t147 60t61 147q0 86 -60.5 146.5t-146.5 60.5zM527 346q0 -45 -15.5 -86.5t-45.5 -74.5l56 -56l-27 -27l-55 56q-35 -29 -75 -44.5t-87 -15.5q-93 0 -161 60l-56 -56l-26 27l55 56q-27 33 -43.5 75.5
t-16.5 85.5q0 93 60 162l-55 55l26 27l56 -56q71 60 161 60q93 0 162 -60l55 56l27 -27l-56 -55q28 -34 44.5 -76t16.5 -86z" />
    <glyph glyph-name="yen" unicode="&#xa5;" 
d="M139 231h120v78h-120v33h98l-244 372h48l238 -374l239 374h45l-244 -372h97v-33h-119v-78h119v-33h-119v-198h-38v198h-120v33z" />
    <glyph glyph-name="brokenbar" unicode="&#xa6;" horiz-adv-x="222" 
d="M92 -17v270h38v-270h-38zM92 461v270h38v-270h-38z" />
    <glyph glyph-name="section" unicode="&#xa7;" 
d="M188 448q-98 -36 -98 -111q0 -40 28 -74q23 -28 75 -60l86 -53q39 -20 87 -50q47 16 72.5 45t25.5 66q0 40 -28 74q-23 28 -75 60q-17 11 -42 26.5t-45 25.5zM391 76q55 -43 55 -109q0 -68 -47.5 -109.5t-120.5 -41.5q-86 0 -132.5 52.5t-46.5 142.5h38
q0 -73 39.5 -117.5t103.5 -44.5q48 0 85 27q42 31 42 80q0 41 -22 71t-79 66l-135 74q-65 36 -92 75.5t-27 94.5q0 44 31 81t80 53q-55 44 -55 109q0 68 47 109.5t118 41.5q85 0 130.5 -52.5t45.5 -142.5h-38q0 73 -38.5 117.5t-101.5 44.5q-47 0 -83 -27q-41 -31 -41 -80
q0 -41 22 -71t79 -66l135 -74q65 -36 92 -75.5t27 -94.5q0 -45 -30.5 -81.5t-80.5 -52.5z" />
    <glyph glyph-name="dieresis" unicode="&#xa8;" horiz-adv-x="167" 
d="M-18 696h44v-102h-44v102zM140 696h44v-102h-44v102z" />
    <glyph glyph-name="copyright" unicode="&#xa9;" horiz-adv-x="800" 
d="M400 731q155 0 265 -110t110 -264q0 -155 -110 -265t-264 -110q-155 0 -265 110t-110 264q0 155 110 265t264 110zM401 697q-140 0 -239 -100t-99 -240q0 -141 99 -241t238 -100q140 0 239 100t99 240q0 141 -99 241t-238 100zM599 437h-38q-12 57 -53.5 89.5t-99.5 32.5
q-85 0 -135 -57t-50 -143q0 -90 52 -148.5t142 -58.5q48 0 87.5 32.5t56.5 95.5h38q-12 -77 -64.5 -119t-126.5 -42q-97 0 -160 67t-63 174q0 102 60 167t159 65q80 0 133 -42t62 -113z" />
    <glyph glyph-name="ordfeminine" unicode="&#xaa;" horiz-adv-x="500" 
d="M254 499v57q-13 -23 -94 -23q-122 0 -122 -77q0 -30 23.5 -49.5t63.5 -19.5q62 0 95.5 32.5t33.5 79.5zM254 440q-18 -37 -51 -55t-79 -18q-111 0 -111 88q0 97 147 97q51 0 73 12t22 41q0 35 -26 53.5t-69 18.5q-49 0 -76.5 -24.5t-27.5 -59.5h-25q0 45 31 73
q35 31 100 31q118 0 118 -91v-185q0 -25 22 -25l18 2v-20l-19 -2q-47 0 -47 38v26z" />
    <glyph glyph-name="guillemotleft" unicode="&#xab;" horiz-adv-x="389" 
d="M226 273l84 -100v-50l-113 130v40l114 130v-50zM98 273l84 -100v-50l-113 130v40l114 130v-50z" />
    <glyph glyph-name="logicalnot" unicode="&#xac;" horiz-adv-x="600" 
d="M514 106v223h-466v38h504v-261h-38z" />
    <glyph glyph-name="minus" unicode="&#xad;" horiz-adv-x="600" 
d="M48 233v38h504v-38h-504z" />
    <glyph glyph-name="registered" unicode="&#xae;" horiz-adv-x="800" 
d="M302 373h99q75 0 105 20.5t30 62.5q0 44 -31 66.5t-82 22.5h-121v-172zM400 731q155 0 265 -110t110 -264q0 -155 -110 -265t-264 -110q-155 0 -265 110t-110 264q0 155 110 265t264 110zM401 697q-140 0 -239 -100t-99 -240q0 -141 99 -241t238 -100q140 0 239 100
t99 240q0 141 -99 241t-238 100zM302 136h-38v442h159q82 0 118 -33q33 -30 33 -89q0 -49 -29.5 -79t-84.5 -38l132 -203h-42l-133 204h-115v-204z" />
    <glyph glyph-name="macron" unicode="&#xaf;" horiz-adv-x="167" 
d="M-37 662h241v-33h-241v33z" />
    <glyph glyph-name="degree" unicode="&#xb0;" horiz-adv-x="400" 
d="M200 702q59 0 101 -42t42 -101t-42 -101t-101 -42t-101 42t-42 101t42 101t101 42zM200 667q-45 0 -76.5 -31.5t-31.5 -76.5t31.5 -76.5t76.5 -31.5t76.5 31.5t31.5 76.5t-31.5 76.5t-76.5 31.5z" />
    <glyph glyph-name="plusminus" unicode="&#xb1;" horiz-adv-x="600" 
d="M281 316v189h38v-189h233v-38h-233v-189h-38v189h-233v38h233zM48 0v38h504v-38h-504z" />
    <glyph glyph-name="twosuperior" unicode="&#xb2;" horiz-adv-x="333" 
d="M17 275q0 52 47 97q37 35 119 81q40 22 66 51q35 39 35 81q0 38 -31.5 64.5t-77.5 26.5q-58 0 -90 -35t-32 -92h-25v6q0 58 34 97q38 44 104 44q65 0 104 -30t39 -83q0 -46 -40 -91q-30 -34 -71 -57q-71 -41 -99 -63q-51 -40 -51 -74h268v-23h-299z" />
    <glyph glyph-name="threesuperior" unicode="&#xb3;" horiz-adv-x="333" 
d="M60 558h-25q0 64 40 101t107 37q64 0 102.5 -28.5t38.5 -76.5q0 -36 -23 -62t-70 -33q45 0 74 -29t29 -77q0 -57 -41.5 -89.5t-111.5 -32.5q-71 0 -111 32q-45 36 -45 106v6h25v-9q0 -52 35.5 -83.5t94.5 -31.5q57 0 93 28t36 72q0 49 -35 73.5t-91 24.5h-24v19h19
q53 0 87 22t34 65q0 36 -32 60t-83 24q-58 0 -90.5 -32.5t-32.5 -85.5z" />
    <glyph glyph-name="acute" unicode="&#xb4;" horiz-adv-x="167" 
d="M26 591l120 140h51l-134 -140h-37z" />
    <glyph glyph-name="mu" unicode="&#xb5;" horiz-adv-x="519" 
d="M463 514v-514h-38v115q-18 -54 -70 -90.5t-119 -36.5q-48 0 -82.5 13.5t-59.5 44.5v-230h-38v698h38v-331q0 -162 150 -162q81 0 131 60t50 161v272h38z" />
    <glyph glyph-name="paragraph" unicode="&#xb6;" horiz-adv-x="600" 
d="M506 -146h-38v827h-157v-827h-38v470q-88 0 -147.5 56.5t-59.5 140.5q0 92 56.5 142.5t159.5 50.5h224v-860z" />
    <glyph glyph-name="periodcentered" unicode="&#xb7;" horiz-adv-x="278" 
d="M113 367h52v-102h-52v102z" />
    <glyph glyph-name="periodcentered" unicode="&#x2219;" horiz-adv-x="278" 
d="M113 367h52v-102h-52v102z" />
    <glyph glyph-name="cedilla" unicode="&#xb8;" horiz-adv-x="167" 
d="M-9 -175l11 24q12 -7 36 -12.5t43 -5.5q64 0 64 48q0 17 -15 31t-36 14q-20 0 -30 -3q-13 -6 -21 -9l-16 13l56 75h34l-52 -61l24 10l19 2q33 0 54 -19t21 -52q0 -76 -101 -76q-27 0 -51 6.5t-40 14.5z" />
    <glyph glyph-name="onesuperior" unicode="&#xb9;" horiz-adv-x="333" 
d="M206 275h-25v370q-21 -22 -51 -35.5t-69 -17.5v20q80 11 123 77h22v-414z" />
    <glyph glyph-name="ordmasculine" unicode="&#xba;" horiz-adv-x="537" 
d="M323 533q0 -75 -42.5 -119.5t-114.5 -44.5q-71 0 -113 45t-42 119q0 75 42.5 119.5t114.5 44.5q71 0 113 -45t42 -119zM298 533q0 63 -36.5 103.5t-94.5 40.5q-59 0 -95 -40t-36 -104t36 -104t95 -40t95 40t36 104z" />
    <glyph glyph-name="guillemotright" unicode="&#xbb;" horiz-adv-x="389" 
d="M293 273l-86 100v50l115 -130v-40l-114 -130v50zM165 273l-86 100v50l115 -130v-40l-114 -130v50z" />
    <glyph glyph-name="onequarter" unicode="&#xbc;" horiz-adv-x="834" 
 />
    <glyph glyph-name="onehalf" unicode="&#xbd;" horiz-adv-x="834" 
 />
    <glyph glyph-name="threequarters" unicode="&#xbe;" horiz-adv-x="834" 
 />
    <glyph glyph-name="questiondown" unicode="&#xbf;" horiz-adv-x="519" 
d="M253 -198q-98 0 -147.5 50t-49.5 131q0 48 20 86.5t68 80.5q52 41 76 87t24 100v15h38v-17q0 -57 -22.5 -103t-71 -89t-69.5 -77q-26 -42 -26 -87q0 -64 43.5 -101.5t120.5 -37.5q85 0 133.5 53.5t48.5 146.5h38q0 -114 -60 -176t-164 -62zM287 430h-51v103h51v-103z" />
    <glyph glyph-name="Agrave" unicode="&#xc0;" horiz-adv-x="593" 
d="M454 267l-154 407l-160 -407h314zM604 0h-46l-90 229h-342l-91 -229h-47l287 714h48zM312 765h-37l-134 140h51z" />
    <glyph glyph-name="Aacute" unicode="&#xc1;" horiz-adv-x="593" 
d="M454 267l-154 407l-160 -407h314zM604 0h-46l-90 229h-342l-91 -229h-47l287 714h48zM285 765l120 140h51l-134 -140h-37z" />
    <glyph glyph-name="Acircumflex" unicode="&#xc2;" horiz-adv-x="593" 
d="M454 267l-154 407l-160 -407h314zM604 0h-46l-90 229h-342l-91 -229h-47l287 714h48zM171 753l115 140h40l115 -140h-38l-97 115l-97 -115h-38z" />
    <glyph glyph-name="Atilde" unicode="&#xc3;" horiz-adv-x="593" 
d="M454 267l-154 407l-160 -407h314zM604 0h-46l-90 229h-342l-91 -229h-47l287 714h48zM443 858q0 -38 -23 -64t-54 -26q-26 0 -72.5 28.5t-65.5 28.5t-30.5 -16.5t-14.5 -40.5h-29q0 38 23 64t54 26q25 0 71.5 -28.5t66.5 -28.5q19 0 30.5 16.5t14.5 40.5h29z" />
    <glyph glyph-name="Adieresis" unicode="&#xc4;" horiz-adv-x="593" 
d="M454 267l-154 407l-160 -407h314zM604 0h-46l-90 229h-342l-91 -229h-47l287 714h48zM201 870h44v-102h-44v102zM359 870h44v-102h-44v102z" />
    <glyph glyph-name="Aring" unicode="&#xc5;" horiz-adv-x="593" 
d="M303 972q41 0 70 -29t29 -70t-29 -70t-70 -29q-40 0 -69 29t-29 70t29 70t69 29zM303 945q-29 0 -50 -21t-21 -51t20 -51t51 -21q30 0 51 21t21 51q0 31 -20.5 51.5t-51.5 20.5zM454 267l-154 407l-160 -407h314zM604 0h-46l-90 229h-342l-91 -229h-47l287 714h48z" />
    <glyph glyph-name="AE" unicode="&#xc6;" horiz-adv-x="870" 
d="M384 676l-201 -384h248v384h-47zM431 254h-268l-132 -254h-39l372 714h490v-38h-380v-287h354v-37h-354v-314h385v-38h-428v254z" />
    <glyph glyph-name="Ccedilla" unicode="&#xc7;" horiz-adv-x="704" 
d="M80 357q0 -147 82.5 -240.5t211.5 -93.5q101 0 174.5 73.5t82.5 181.5h44q-14 -128 -97.5 -210.5t-203.5 -82.5q-150 0 -244 103t-94 265q0 167 93.5 272.5t242.5 105.5q117 0 192 -57t99 -173h-44q-17 90 -85 141t-161 51q-129 0 -211 -94t-82 -242zM257 -175l11 24
q12 -7 36 -12.5t43 -5.5q64 0 64 48q0 17 -15 31t-36 14q-20 0 -30 -3q-13 -6 -21 -9l-16 13l56 75h34l-52 -61l24 10l19 2q33 0 54 -19t21 -52q0 -76 -101 -76q-27 0 -51 6.5t-40 14.5z" />
    <glyph glyph-name="Egrave" unicode="&#xc8;" horiz-adv-x="560" 
d="M548 0h-485v714h480v-38h-436v-287h410v-37h-410v-314h441v-38zM340 767h-37l-134 140h51z" />
    <glyph glyph-name="Eacute" unicode="&#xc9;" horiz-adv-x="560" 
d="M548 0h-485v714h480v-38h-436v-287h410v-37h-410v-314h441v-38zM255 761l120 140h51l-134 -140h-37z" />
    <glyph glyph-name="Ecircumflex" unicode="&#xca;" horiz-adv-x="560" 
d="M548 0h-485v714h480v-38h-436v-287h410v-37h-410v-314h441v-38zM163 761l115 140h40l115 -140h-38l-97 115l-97 -115h-38z" />
    <glyph glyph-name="Edieresis" unicode="&#xcb;" horiz-adv-x="560" 
d="M548 0h-485v714h480v-38h-436v-287h410v-37h-410v-314h441v-38zM195 864h44v-102h-44v102zM353 864h44v-102h-44v102z" />
    <glyph glyph-name="Igrave" unicode="&#xcc;" horiz-adv-x="170" 
d="M107 0h-44v714h44v-714zM102 769h-37l-134 140h51z" />
    <glyph glyph-name="Iacute" unicode="&#xcd;" horiz-adv-x="170" 
d="M107 0h-44v714h44v-714zM65 763l120 140h51l-134 -140h-37z" />
    <glyph glyph-name="Icircumflex" unicode="&#xce;" horiz-adv-x="170" 
d="M107 0h-44v714h44v-714zM-41 759l115 140h40l115 -140h-38l-97 115l-97 -115h-38z" />
    <glyph glyph-name="Idieresis" unicode="&#xcf;" horiz-adv-x="170" 
d="M107 0h-44v714h44v-714zM-13 868h44v-102h-44v102zM145 868h44v-102h-44v102z" />
    <glyph glyph-name="Eth" unicode="&#xd0;" horiz-adv-x="667" 
 />
    <glyph glyph-name="Ntilde" unicode="&#xd1;" horiz-adv-x="678" 
d="M570 57v657h44v-714h-51l-456 663v-663h-44v714h55q22 -33 75 -111q68 -100 75 -110l76 -108q26 -36 75 -107q27 -39 75 -109q60 -87 76 -112zM477 854q0 -38 -23 -64t-54 -26q-26 0 -72.5 28.5t-65.5 28.5t-30.5 -16.5t-14.5 -40.5h-29q0 38 23 64t54 26
q25 0 71.5 -28.5t66.5 -28.5q19 0 30.5 16.5t14.5 40.5h29z" />
    <glyph glyph-name="Ograve" unicode="&#xd2;" horiz-adv-x="741" 
d="M667 358q0 148 -82.5 241.5t-213.5 93.5q-130 0 -213 -94t-83 -241t83 -241t213 -94q131 0 213.5 93.5t82.5 241.5zM711 358q0 -165 -94 -269t-246 -104t-246 103.5t-94 269.5q0 165 94 269t246 104t246 -103.5t94 -269.5zM399 773h-37l-134 140h51z" />
    <glyph glyph-name="Oacute" unicode="&#xd3;" horiz-adv-x="741" 
d="M667 358q0 148 -82.5 241.5t-213.5 93.5q-130 0 -213 -94t-83 -241t83 -241t213 -94q131 0 213.5 93.5t82.5 241.5zM711 358q0 -165 -94 -269t-246 -104t-246 103.5t-94 269.5q0 165 94 269t246 104t246 -103.5t94 -269.5zM346 775l120 140h51l-134 -140h-37z" />
    <glyph glyph-name="Ocircumflex" unicode="&#xd4;" horiz-adv-x="741" 
d="M667 358q0 148 -82.5 241.5t-213.5 93.5q-130 0 -213 -94t-83 -241t83 -241t213 -94q131 0 213.5 93.5t82.5 241.5zM711 358q0 -165 -94 -269t-246 -104t-246 103.5t-94 269.5q0 165 94 269t246 104t246 -103.5t94 -269.5zM238 769l115 140h40l115 -140h-38l-97 115
l-97 -115h-38z" />
    <glyph glyph-name="Otilde" unicode="&#xd5;" horiz-adv-x="741" 
d="M667 358q0 148 -82.5 241.5t-213.5 93.5q-130 0 -213 -94t-83 -241t83 -241t213 -94q131 0 213.5 93.5t82.5 241.5zM711 358q0 -165 -94 -269t-246 -104t-246 103.5t-94 269.5q0 165 94 269t246 104t246 -103.5t94 -269.5zM510 868q0 -38 -23 -64t-54 -26
q-26 0 -72.5 28.5t-65.5 28.5t-30.5 -16.5t-14.5 -40.5h-29q0 38 23 64t54 26q25 0 71.5 -28.5t66.5 -28.5q19 0 30.5 16.5t14.5 40.5h29z" />
    <glyph glyph-name="Odieresis" unicode="&#xd6;" horiz-adv-x="741" 
d="M667 358q0 148 -82.5 241.5t-213.5 93.5q-130 0 -213 -94t-83 -241t83 -241t213 -94q131 0 213.5 93.5t82.5 241.5zM711 358q0 -165 -94 -269t-246 -104t-246 103.5t-94 269.5q0 165 94 269t246 104t246 -103.5t94 -269.5zM266 874h44v-102h-44v102zM424 874h44v-102h-44
v102z" />
    <glyph glyph-name="multiply" unicode="&#xd7;" horiz-adv-x="600" 
d="M273 252l-194 194l26 26l194 -194l194 194l26 -26l-194 -194l194 -194l-26 -26l-194 194l-194 -194l-26 26z" />
    <glyph glyph-name="Oslash" unicode="&#xd8;" horiz-adv-x="741" 
d="M598 582l-431 -474q79 -85 204 -85q131 0 213.5 93.5t82.5 241.5q0 135 -69 224zM143 135l432 474q-78 84 -204 84q-130 0 -213 -94t-83 -241q0 -135 68 -223zM671 714l26 -24l-69 -76q83 -100 83 -256q0 -165 -94 -269t-246 -104q-144 0 -234 91l-76 -84l-26 24l79 86
q-83 100 -83 256q0 165 94 269t246 104q144 0 233 -90z" />
    <glyph glyph-name="Ugrave" unicode="&#xd9;" horiz-adv-x="672" 
d="M565 280v434h44v-434q0 -144 -69.5 -219.5t-203.5 -75.5q-273 0 -273 290v439h44v-434q0 -126 58.5 -191.5t170.5 -65.5q229 0 229 257zM370 763h-37l-134 140h51z" />
    <glyph glyph-name="Uacute" unicode="&#xda;" horiz-adv-x="672" 
d="M565 280v434h44v-434q0 -144 -69.5 -219.5t-203.5 -75.5q-273 0 -273 290v439h44v-434q0 -126 58.5 -191.5t170.5 -65.5q229 0 229 257zM327 761l120 140h51l-134 -140h-37z" />
    <glyph glyph-name="Ucircumflex" unicode="&#xdb;" horiz-adv-x="672" 
d="M565 280v434h44v-434q0 -144 -69.5 -219.5t-203.5 -75.5q-273 0 -273 290v439h44v-434q0 -126 58.5 -191.5t170.5 -65.5q229 0 229 257zM201 757l115 140h40l115 -140h-38l-97 115l-97 -115h-38z" />
    <glyph glyph-name="Udieresis" unicode="&#xdc;" horiz-adv-x="672" 
d="M565 280v434h44v-434q0 -144 -69.5 -219.5t-203.5 -75.5q-273 0 -273 290v439h44v-434q0 -126 58.5 -191.5t170.5 -65.5q229 0 229 257zM233 858h44v-102h-44v102zM391 858h44v-102h-44v102z" />
    <glyph glyph-name="Yacute" unicode="&#xdd;" horiz-adv-x="574" 
d="M546 714h50l-288 -415v-299h-44v299l-285 415h50l258 -378zM281 755l120 140h51l-134 -140h-37z" />
    <glyph glyph-name="Thorn" unicode="&#xde;" horiz-adv-x="593" 
 />
    <glyph glyph-name="germandbls" unicode="&#xdf;" horiz-adv-x="500" 
d="M96 538v-538h-38v542q0 92 48 138t131 46q92 0 141.5 -44.5t49.5 -126.5q0 -60 -31 -100t-95 -54q74 0 117.5 -50.5t43.5 -134.5q0 -103 -49 -157q-53 -59 -158 -59h-49v33h35q91 0 137 47t46 129q0 89 -51 129.5t-167 40.5v33q85 0 134 39t49 104q0 69 -43 103.5
t-110 34.5q-62 0 -99 -35q-42 -40 -42 -120z" />
    <glyph glyph-name="agrave" unicode="&#xe0;" horiz-adv-x="500" 
d="M397 202v93q-23 -38 -142 -38q-97 0 -141 -31t-44 -95q0 -49 35 -81t97 -32q93 0 146 55q49 51 49 129zM397 105q-27 -60 -77 -90t-120 -30q-83 0 -125.5 37.5t-42.5 106.5q0 159 223 159q58 0 85 9q59 19 59 78q0 56 -40.5 87t-103.5 31q-75 0 -116.5 -39.5t-41.5 -97.5
h-38q0 76 47 121q52 49 151 49q179 0 179 -149v-304q0 -40 34 -40l27 3v-32l-29 -4q-71 0 -71 63v42zM280 575h-37l-134 140h51z" />
    <glyph glyph-name="aacute" unicode="&#xe1;" horiz-adv-x="500" 
d="M397 202v93q-23 -38 -142 -38q-97 0 -141 -31t-44 -95q0 -49 35 -81t97 -32q93 0 146 55q49 51 49 129zM397 105q-27 -60 -77 -90t-120 -30q-83 0 -125.5 37.5t-42.5 106.5q0 159 223 159q58 0 85 9q59 19 59 78q0 56 -40.5 87t-103.5 31q-75 0 -116.5 -39.5t-41.5 -97.5
h-38q0 76 47 121q52 49 151 49q179 0 179 -149v-304q0 -40 34 -40l27 3v-32l-29 -4q-71 0 -71 63v42zM239 577l120 140h51l-134 -140h-37z" />
    <glyph glyph-name="acircumflex" unicode="&#xe2;" horiz-adv-x="500" 
d="M397 202v93q-23 -38 -142 -38q-97 0 -141 -31t-44 -95q0 -49 35 -81t97 -32q93 0 146 55q49 51 49 129zM397 105q-27 -60 -77 -90t-120 -30q-83 0 -125.5 37.5t-42.5 106.5q0 159 223 159q58 0 85 9q59 19 59 78q0 56 -40.5 87t-103.5 31q-75 0 -116.5 -39.5t-41.5 -97.5
h-38q0 76 47 121q52 49 151 49q179 0 179 -149v-304q0 -40 34 -40l27 3v-32l-29 -4q-71 0 -71 63v42zM123 571l115 140h40l115 -140h-38l-97 115l-97 -115h-38z" />
    <glyph glyph-name="atilde" unicode="&#xe3;" horiz-adv-x="500" 
d="M397 202v93q-23 -38 -142 -38q-97 0 -141 -31t-44 -95q0 -49 35 -81t97 -32q93 0 146 55q49 51 49 129zM397 105q-27 -60 -77 -90t-120 -30q-83 0 -125.5 37.5t-42.5 106.5q0 159 223 159q58 0 85 9q59 19 59 78q0 56 -40.5 87t-103.5 31q-75 0 -116.5 -39.5t-41.5 -97.5
h-38q0 76 47 121q52 49 151 49q179 0 179 -149v-304q0 -40 34 -40l27 3v-32l-29 -4q-71 0 -71 63v42zM395 676q0 -38 -23 -64t-54 -26q-26 0 -72.5 28.5t-65.5 28.5t-30.5 -16.5t-14.5 -40.5h-29q0 38 23 64t54 26q25 0 71.5 -28.5t66.5 -28.5q19 0 30.5 16.5t14.5 40.5h29z
" />
    <glyph glyph-name="adieresis" unicode="&#xe4;" horiz-adv-x="500" 
d="M397 202v93q-23 -38 -142 -38q-97 0 -141 -31t-44 -95q0 -49 35 -81t97 -32q93 0 146 55q49 51 49 129zM397 105q-27 -60 -77 -90t-120 -30q-83 0 -125.5 37.5t-42.5 106.5q0 159 223 159q58 0 85 9q59 19 59 78q0 56 -40.5 87t-103.5 31q-75 0 -116.5 -39.5t-41.5 -97.5
h-38q0 76 47 121q52 49 151 49q179 0 179 -149v-304q0 -40 34 -40l27 3v-32l-29 -4q-71 0 -71 63v42zM149 680h44v-102h-44v102zM307 680h44v-102h-44v102z" />
    <glyph glyph-name="aring" unicode="&#xe5;" horiz-adv-x="500" 
d="M255 761q41 0 70 -29t29 -70t-29 -70t-70 -29q-40 0 -69 29t-29 70t29 70t69 29zM255 734q-29 0 -50 -21t-21 -51t20 -51t51 -21q30 0 51 21t21 51q0 31 -20.5 51.5t-51.5 20.5zM397 202v93q-23 -38 -142 -38q-97 0 -141 -31t-44 -95q0 -49 35 -81t97 -32q93 0 146 55
q49 51 49 129zM397 105q-27 -60 -77 -90t-120 -30q-83 0 -125.5 37.5t-42.5 106.5q0 159 223 159q58 0 85 9q59 19 59 78q0 56 -40.5 87t-103.5 31q-75 0 -116.5 -39.5t-41.5 -97.5h-38q0 76 47 121q52 49 151 49q179 0 179 -149v-304q0 -40 34 -40l27 3v-32l-29 -4
q-71 0 -71 63v42z" />
    <glyph glyph-name="ae" unicode="&#xe6;" horiz-adv-x="880" 
d="M406 202v93q-11 -18 -49 -28t-98 -10q-99 0 -144 -31t-45 -95q0 -48 37 -80.5t99 -32.5q96 0 150 55q50 51 50 129zM436 393q33 75 85 106q45 27 114 27q102 0 164 -73q59 -70 59 -179l1 -22h-416q0 -103 51 -167t139 -64q75 0 123 44q44 40 57 110h41
q-15 -90 -72.5 -138.5t-148.5 -48.5q-78 0 -128 34q-56 38 -81 120q-17 -68 -68 -109q-60 -48 -155 -48q-82 0 -125.5 37.5t-43.5 106.5q0 81 56 120t173 39q79 0 110 18q37 22 37 69q0 56 -41.5 87t-107.5 31q-77 0 -119.5 -39.5t-42.5 -97.5h-38q0 77 47 121q52 49 153 49
q81 0 125.5 -32t51.5 -101zM444 285h374q0 90 -54 149t-132 59q-81 0 -135 -67q-45 -56 -53 -141z" />
    <glyph glyph-name="ccedilla" unicode="&#xe7;" horiz-adv-x="519" 
d="M447 181h39q-12 -87 -70 -140t-143 -53q-110 0 -175 71.5t-65 191.5q0 124 63.5 199.5t173.5 75.5q87 0 141 -40q60 -45 69 -131h-38q0 60 -48 99t-124 39q-87 0 -143 -65.5t-56 -167.5q0 -112 52.5 -175.5t148.5 -63.5q67 0 116.5 43.5t58.5 116.5zM167 -175l11 24
q12 -7 36 -12.5t43 -5.5q64 0 64 48q0 17 -15 31t-36 14q-20 0 -30 -3q-13 -6 -21 -9l-16 13l56 75h34l-52 -61l24 10l19 2q33 0 54 -19t21 -52q0 -76 -101 -76q-27 0 -51 6.5t-40 14.5z" />
    <glyph glyph-name="egrave" unicode="&#xe8;" horiz-adv-x="519" 
d="M484 175q-16 -90 -73.5 -138.5t-148.5 -48.5q-109 0 -169 71.5t-60 198.5q0 119 63.5 193.5t166.5 74.5q102 0 165 -74q60 -71 60 -178v-22h-418q0 -103 51 -167t141 -64q74 0 121 42.5t60 111.5h41zM71 285h377q0 89 -54.5 148.5t-132.5 59.5q-82 0 -137 -67
q-45 -56 -53 -141zM285 579h-37l-134 140h51z" />
    <glyph glyph-name="eacute" unicode="&#xe9;" horiz-adv-x="519" 
d="M484 175q-16 -90 -73.5 -138.5t-148.5 -48.5q-109 0 -169 71.5t-60 198.5q0 119 63.5 193.5t166.5 74.5q102 0 165 -74q60 -71 60 -178v-22h-418q0 -103 51 -167t141 -64q74 0 121 42.5t60 111.5h41zM71 285h377q0 89 -54.5 148.5t-132.5 59.5q-82 0 -137 -67
q-45 -56 -53 -141zM248 579l120 140h51l-134 -140h-37z" />
    <glyph glyph-name="ecircumflex" unicode="&#xea;" horiz-adv-x="519" 
d="M484 175q-16 -90 -73.5 -138.5t-148.5 -48.5q-109 0 -169 71.5t-60 198.5q0 119 63.5 193.5t166.5 74.5q102 0 165 -74q60 -71 60 -178v-22h-418q0 -103 51 -167t141 -64q74 0 121 42.5t60 111.5h41zM71 285h377q0 89 -54.5 148.5t-132.5 59.5q-82 0 -137 -67
q-45 -56 -53 -141zM132 575l115 140h40l115 -140h-38l-97 115l-97 -115h-38z" />
    <glyph glyph-name="edieresis" unicode="&#xeb;" horiz-adv-x="519" 
d="M484 175q-16 -90 -73.5 -138.5t-148.5 -48.5q-109 0 -169 71.5t-60 198.5q0 119 63.5 193.5t166.5 74.5q102 0 165 -74q60 -71 60 -178v-22h-418q0 -103 51 -167t141 -64q74 0 121 42.5t60 111.5h41zM71 285h377q0 89 -54.5 148.5t-132.5 59.5q-82 0 -137 -67
q-45 -56 -53 -141zM163 674h44v-102h-44v102zM321 674h44v-102h-44v102z" />
    <glyph glyph-name="igrave" unicode="&#xec;" horiz-adv-x="168" 
d="M103 0h-38v514h38v-514zM104 565h-37l-134 140h51z" />
    <glyph glyph-name="iacute" unicode="&#xed;" horiz-adv-x="168" 
d="M103 0h-38v514h38v-514zM67 565l120 140h51l-134 -140h-37z" />
    <glyph glyph-name="icircumflex" unicode="&#xee;" horiz-adv-x="168" 
d="M103 0h-38v514h38v-514zM-53 565l115 140h40l115 -140h-38l-97 115l-97 -115h-38z" />
    <glyph glyph-name="idieresis" unicode="&#xef;" horiz-adv-x="168" 
d="M103 0h-38v514h38v-514zM-21 670h44v-102h-44v102zM137 670h44v-102h-44v102z" />
    <glyph glyph-name="eth" unicode="&#xf0;" horiz-adv-x="537" 
 />
    <glyph glyph-name="ntilde" unicode="&#xf1;" horiz-adv-x="519" 
d="M463 0h-38v330q0 163 -145 163q-84 0 -135 -60t-51 -150v-283h-38v514h39v-116q17 56 68 92t115 36q91 0 138 -48t47 -141v-337zM404 670q0 -38 -23 -64t-54 -26q-26 0 -72.5 28.5t-65.5 28.5t-30.5 -16.5t-14.5 -40.5h-29q0 38 23 64t54 26q25 0 71.5 -28.5t66.5 -28.5
q19 0 30.5 16.5t14.5 40.5h29z" />
    <glyph glyph-name="ograve" unicode="&#xf2;" horiz-adv-x="537" 
d="M504 257q0 -122 -64.5 -195.5t-172.5 -73.5q-107 0 -171 74t-64 195q0 122 64.5 195.5t172.5 73.5q107 0 171 -74t64 -195zM466 257q0 105 -54.5 170.5t-143.5 65.5t-143.5 -65.5t-54.5 -170.5t54.5 -170.5t143.5 -65.5t143.5 65.5t54.5 170.5zM294 571h-37l-134 140h51z
" />
    <glyph glyph-name="oacute" unicode="&#xf3;" horiz-adv-x="537" 
d="M504 257q0 -122 -64.5 -195.5t-172.5 -73.5q-107 0 -171 74t-64 195q0 122 64.5 195.5t172.5 73.5q107 0 171 -74t64 -195zM466 257q0 105 -54.5 170.5t-143.5 65.5t-143.5 -65.5t-54.5 -170.5t54.5 -170.5t143.5 -65.5t143.5 65.5t54.5 170.5zM247 577l120 140h51
l-134 -140h-37z" />
    <glyph glyph-name="ocircumflex" unicode="&#xf4;" horiz-adv-x="537" 
d="M504 257q0 -122 -64.5 -195.5t-172.5 -73.5q-107 0 -171 74t-64 195q0 122 64.5 195.5t172.5 73.5q107 0 171 -74t64 -195zM466 257q0 105 -54.5 170.5t-143.5 65.5t-143.5 -65.5t-54.5 -170.5t54.5 -170.5t143.5 -65.5t143.5 65.5t54.5 170.5zM137 571l115 140h40
l115 -140h-38l-97 115l-97 -115h-38z" />
    <glyph glyph-name="otilde" unicode="&#xf5;" horiz-adv-x="537" 
d="M504 257q0 -122 -64.5 -195.5t-172.5 -73.5q-107 0 -171 74t-64 195q0 122 64.5 195.5t172.5 73.5q107 0 171 -74t64 -195zM466 257q0 105 -54.5 170.5t-143.5 65.5t-143.5 -65.5t-54.5 -170.5t54.5 -170.5t143.5 -65.5t143.5 65.5t54.5 170.5zM411 674q0 -38 -23 -64
t-54 -26q-26 0 -72.5 28.5t-65.5 28.5t-30.5 -16.5t-14.5 -40.5h-29q0 38 23 64t54 26q25 0 71.5 -28.5t66.5 -28.5q19 0 30.5 16.5t14.5 40.5h29z" />
    <glyph glyph-name="odieresis" unicode="&#xf6;" horiz-adv-x="537" 
d="M504 257q0 -122 -64.5 -195.5t-172.5 -73.5q-107 0 -171 74t-64 195q0 122 64.5 195.5t172.5 73.5q107 0 171 -74t64 -195zM466 257q0 105 -54.5 170.5t-143.5 65.5t-143.5 -65.5t-54.5 -170.5t54.5 -170.5t143.5 -65.5t143.5 65.5t54.5 170.5zM163 676h44v-102h-44v102z
M321 676h44v-102h-44v102z" />
    <glyph glyph-name="divide" unicode="&#xf7;" horiz-adv-x="600" 
d="M278 501h49v-97h-49v97zM48 233v38h504v-38h-504zM278 99h49v-97h-49v97z" />
    <glyph glyph-name="oslash" unicode="&#xf8;" horiz-adv-x="537" 
d="M489 513l24 -23l-56 -60q47 -65 47 -173q0 -122 -64.5 -195.5t-172.5 -73.5q-105 0 -166 67l-52 -55l-24 22l56 59q-49 67 -49 176q0 122 64.5 195.5t172.5 73.5q105 0 167 -69zM429 402l-301 -319q53 -62 140 -62q89 0 143.5 65.5t54.5 170.5q0 89 -37 145zM108 110
l301 319q-52 64 -141 64t-143.5 -65.5t-54.5 -170.5q0 -89 38 -147z" />
    <glyph glyph-name="ugrave" unicode="&#xf9;" horiz-adv-x="519" 
d="M463 514v-514h-38v115q-16 -54 -67 -90.5t-116 -36.5q-186 0 -186 191v335h38v-331q0 -162 150 -162q81 0 131 60t50 161v272h38zM291 567h-37l-134 140h51z" />
    <glyph glyph-name="uacute" unicode="&#xfa;" horiz-adv-x="519" 
d="M463 514v-514h-38v115q-16 -54 -67 -90.5t-116 -36.5q-186 0 -186 191v335h38v-331q0 -162 150 -162q81 0 131 60t50 161v272h38zM248 565l120 140h51l-134 -140h-37z" />
    <glyph glyph-name="ucircumflex" unicode="&#xfb;" horiz-adv-x="519" 
d="M463 514v-514h-38v115q-16 -54 -67 -90.5t-116 -36.5q-186 0 -186 191v335h38v-331q0 -162 150 -162q81 0 131 60t50 161v272h38zM130 565l115 140h40l115 -140h-38l-97 115l-97 -115h-38z" />
    <glyph glyph-name="udieresis" unicode="&#xfc;" horiz-adv-x="519" 
d="M463 514v-514h-38v115q-16 -54 -67 -90.5t-116 -36.5q-186 0 -186 191v335h38v-331q0 -162 150 -162q81 0 131 60t50 161v272h38zM156 668h44v-102h-44v102zM314 668h44v-102h-44v102z" />
    <glyph glyph-name="yacute" unicode="&#xfd;" horiz-adv-x="444" 
d="M406 514h42l-239 -614q-20 -49 -46.5 -66.5t-90.5 -17.5h-23v33h18q39 0 66.5 14.5t42.5 50.5l33 89l-215 511h45l191 -469zM223 567l120 140h51l-134 -140h-37z" />
    <glyph glyph-name="thorn" unicode="&#xfe;" 
 />
    <glyph glyph-name="ydieresis" unicode="&#xff;" horiz-adv-x="444" 
d="M406 514h42l-239 -614q-20 -49 -46.5 -66.5t-90.5 -17.5h-23v33h18q39 0 66.5 14.5t42.5 50.5l33 89l-215 511h45l191 -469zM135 668h44v-102h-44v102zM293 668h44v-102h-44v102z" />
    <glyph glyph-name="Zcaron" unicode="&#x17d;" horiz-adv-x="537" 
 />
    <glyph glyph-name="zcaron" unicode="&#x17e;" horiz-adv-x="426" 
 />
    <glyph glyph-name="Kcedilla" unicode="&#x12c;" horiz-adv-x="613" 
 />
    <glyph glyph-name="umacron" unicode="&#x14d;" horiz-adv-x="519" 
 />
    <glyph glyph-name="Uring" unicode="&#x14e;" horiz-adv-x="672" 
 />
    <glyph glyph-name="OE" unicode="&#x152;" horiz-adv-x="672" 
 />
    <glyph glyph-name="oe" unicode="&#x153;" horiz-adv-x="519" 
 />
  </font>
</defs>
</svg>
